<?xml version="1.0" encoding="UTF-8"?>
<svg xmlns="http://www.w3.org/2000/svg" xmlns:xlink="http://www.w3.org/1999/xlink" width="60px" height="60px" viewBox="0 0 60 60" version="1.1">
<g id="surface1">
<path style=" stroke:none;fill-rule:nonzero;fill:rgb(0.784314%,40.000001%,99.215686%);fill-opacity:1;" d="M 49.515625 8.5 C 49.773438 8.734375 50.035156 8.960938 50.300781 9.1875 C 50.699219 9.53125 51.042969 9.902344 51.382812 10.304688 C 51.527344 10.476562 51.679688 10.644531 51.835938 10.8125 C 55.65625 14.867188 57.941406 20.230469 58.800781 25.679688 C 58.8125 25.769531 58.828125 25.855469 58.84375 25.945312 C 59.441406 29.832031 59.058594 33.898438 58.078125 37.679688 C 58.046875 37.8125 58.046875 37.8125 58.011719 37.945312 C 56.832031 42.613281 54.1875 46.71875 50.878906 50.160156 C 50.808594 50.234375 50.734375 50.3125 50.660156 50.390625 C 49.503906 51.609375 48.285156 52.660156 46.921875 53.640625 C 46.839844 53.699219 46.761719 53.757812 46.679688 53.816406 C 40.542969 58.257812 32.808594 59.855469 25.359375 58.746094 C 21.128906 58.042969 16.855469 56.515625 13.441406 53.878906 C 13.285156 53.765625 13.132812 53.65625 12.980469 53.542969 C 12.105469 52.902344 11.277344 52.25 10.484375 51.507812 C 10.230469 51.269531 9.972656 51.042969 9.703125 50.820312 C 8.675781 49.917969 7.835938 48.824219 7.007812 47.738281 C 6.898438 47.597656 6.789062 47.453125 6.675781 47.308594 C 3.894531 43.738281 2.105469 39.484375 1.320312 35.039062 C 1.300781 34.929688 1.28125 34.820312 1.261719 34.707031 C 0.347656 29.390625 0.984375 23.515625 3.238281 18.601562 C 3.304688 18.457031 3.304688 18.457031 3.371094 18.308594 C 4.628906 15.53125 6.195312 12.9375 8.28125 10.695312 C 8.496094 10.46875 8.695312 10.230469 8.894531 9.988281 C 12.5625 5.808594 17.933594 2.972656 23.28125 1.679688 C 23.367188 1.65625 23.453125 1.636719 23.542969 1.613281 C 32.65625 -0.691406 42.648438 2.226562 49.515625 8.5 Z M 49.515625 8.5 "/>
<path style=" stroke:none;fill-rule:nonzero;fill:rgb(99.215686%,99.607843%,99.607843%);fill-opacity:1;" d="M 29.96875 10.996094 C 30.132812 10.992188 30.132812 10.992188 30.296875 10.984375 C 32.011719 10.980469 33.570312 11.789062 35.113281 12.457031 C 35.328125 12.546875 35.539062 12.640625 35.75 12.730469 C 36.183594 12.917969 36.617188 13.101562 37.050781 13.289062 C 37.636719 13.542969 38.222656 13.792969 38.808594 14.042969 C 39.507812 14.34375 40.203125 14.640625 40.902344 14.941406 C 41.675781 15.273438 42.453125 15.605469 43.226562 15.9375 C 43.636719 16.113281 44.046875 16.289062 44.457031 16.464844 C 44.984375 16.691406 45.511719 16.914062 46.039062 17.132812 C 46.289062 17.242188 46.542969 17.347656 46.792969 17.453125 C 46.90625 17.5 47.019531 17.546875 47.136719 17.59375 C 47.953125 17.941406 48.601562 18.347656 48.960938 19.199219 C 49.046875 19.914062 49.023438 20.519531 48.601562 21.121094 C 48.054688 21.671875 47.488281 22.003906 46.777344 22.292969 C 46.632812 22.351562 46.632812 22.351562 46.492188 22.414062 C 46.183594 22.539062 45.878906 22.667969 45.570312 22.792969 C 45.355469 22.882812 45.140625 22.972656 44.921875 23.0625 C 44.484375 23.246094 44.042969 23.429688 43.601562 23.613281 C 42.742188 23.96875 41.886719 24.335938 41.03125 24.707031 C 40.683594 24.855469 40.339844 25.003906 39.992188 25.148438 C 39.503906 25.359375 39.011719 25.570312 38.523438 25.78125 C 37.601562 26.175781 36.683594 26.570312 35.765625 26.964844 C 35.527344 27.066406 35.292969 27.164062 35.058594 27.265625 C 31.734375 28.695312 31.734375 28.695312 29.941406 28.71875 C 29.839844 28.722656 29.742188 28.722656 29.640625 28.726562 C 27.71875 28.746094 25.875 27.691406 24.148438 26.949219 C 23.863281 26.824219 23.574219 26.703125 23.289062 26.578125 C 22.699219 26.324219 22.109375 26.070312 21.515625 25.816406 C 20.679688 25.457031 19.84375 25.097656 19.003906 24.738281 C 18.257812 24.421875 17.511719 24.101562 16.765625 23.78125 C 16.652344 23.734375 16.539062 23.683594 16.421875 23.636719 C 16.203125 23.539062 15.980469 23.445312 15.757812 23.347656 C 15.175781 23.097656 14.59375 22.851562 14.007812 22.609375 C 13.882812 22.558594 13.757812 22.507812 13.628906 22.453125 C 13.394531 22.355469 13.15625 22.257812 12.917969 22.160156 C 12.199219 21.859375 11.636719 21.507812 11.160156 20.878906 C 10.917969 20.15625 10.910156 19.347656 11.242188 18.660156 C 11.800781 18.058594 12.367188 17.742188 13.113281 17.433594 C 13.210938 17.390625 13.308594 17.347656 13.410156 17.304688 C 13.730469 17.167969 14.054688 17.035156 14.378906 16.898438 C 14.605469 16.800781 14.832031 16.703125 15.0625 16.605469 C 15.53125 16.40625 16.003906 16.207031 16.472656 16.011719 C 17.199219 15.703125 17.925781 15.394531 18.652344 15.085938 C 19.136719 14.878906 19.621094 14.671875 20.105469 14.46875 C 21.097656 14.046875 22.09375 13.621094 23.085938 13.195312 C 23.601562 12.972656 24.117188 12.75 24.632812 12.53125 C 24.882812 12.421875 25.132812 12.316406 25.382812 12.207031 C 25.730469 12.054688 26.082031 11.90625 26.429688 11.757812 C 26.53125 11.710938 26.632812 11.667969 26.742188 11.621094 C 27.816406 11.164062 28.804688 10.996094 29.96875 10.996094 Z M 29.96875 10.996094 "/>
<path style=" stroke:none;fill-rule:nonzero;fill:rgb(98.823529%,99.215686%,99.607843%);fill-opacity:1;" d="M 18.472656 27.382812 C 18.5625 27.421875 18.648438 27.460938 18.742188 27.5 C 18.933594 27.578125 19.125 27.660156 19.316406 27.742188 C 19.617188 27.871094 19.917969 28 20.222656 28.128906 C 21.125 28.511719 22.027344 28.898438 22.925781 29.285156 C 23.277344 29.433594 23.632812 29.585938 23.984375 29.734375 C 24.222656 29.839844 24.464844 29.941406 24.703125 30.046875 C 28.101562 31.507812 31.070312 31.722656 34.523438 30.359375 C 35.558594 29.941406 36.585938 29.492188 37.609375 29.042969 C 37.730469 28.992188 37.851562 28.9375 37.976562 28.882812 C 38.59375 28.617188 39.207031 28.347656 39.824219 28.074219 C 42.183594 27.035156 43.691406 26.386719 46.199219 27.359375 C 46.285156 27.390625 46.371094 27.425781 46.457031 27.457031 C 48.425781 28.214844 48.425781 28.214844 48.960938 29.28125 C 49.019531 29.929688 49.046875 30.519531 48.789062 31.125 C 47.808594 32.128906 46.484375 32.582031 45.21875 33.113281 C 44.996094 33.207031 44.777344 33.296875 44.558594 33.390625 C 44.082031 33.59375 43.605469 33.792969 43.128906 33.996094 C 42.320312 34.335938 41.515625 34.679688 40.710938 35.023438 C 39.214844 35.664062 37.722656 36.300781 36.226562 36.933594 C 35.910156 37.066406 35.59375 37.203125 35.277344 37.335938 C 34.792969 37.542969 34.308594 37.746094 33.824219 37.949219 C 33.695312 38.003906 33.566406 38.058594 33.433594 38.117188 C 32.335938 38.574219 31.226562 38.929688 30.03125 38.933594 C 29.816406 38.9375 29.816406 38.9375 29.597656 38.941406 C 28.175781 38.839844 26.828125 38.324219 25.546875 37.734375 C 25.21875 37.585938 24.886719 37.4375 24.558594 37.289062 C 24.386719 37.214844 24.214844 37.136719 24.042969 37.058594 C 23.171875 36.667969 22.289062 36.300781 21.40625 35.933594 C 20.035156 35.363281 18.675781 34.78125 17.316406 34.1875 C 16.53125 33.84375 15.742188 33.507812 14.945312 33.1875 C 14.691406 33.085938 14.441406 32.984375 14.1875 32.882812 C 14.027344 32.816406 13.867188 32.753906 13.707031 32.691406 C 12.71875 32.304688 11.863281 31.898438 11.160156 31.078125 C 10.921875 30.363281 10.914062 29.554688 11.226562 28.867188 C 11.820312 28.242188 12.503906 27.855469 13.289062 27.523438 C 13.375 27.488281 13.457031 27.453125 13.542969 27.417969 C 15.332031 26.667969 16.683594 26.613281 18.472656 27.382812 Z M 18.472656 27.382812 "/>
<path style=" stroke:none;fill-rule:nonzero;fill:rgb(98.823529%,99.215686%,99.607843%);fill-opacity:1;" d="M 15.976562 36.929688 C 16.078125 36.925781 16.183594 36.921875 16.289062 36.921875 C 17.332031 37.027344 18.296875 37.476562 19.242188 37.894531 C 19.433594 37.976562 19.433594 37.976562 19.628906 38.0625 C 20.039062 38.238281 20.445312 38.417969 20.851562 38.59375 C 23.144531 39.597656 23.144531 39.597656 25.457031 40.566406 C 25.5625 40.609375 25.667969 40.652344 25.777344 40.699219 C 27.132812 41.25 28.398438 41.558594 29.863281 41.578125 C 29.964844 41.582031 30.066406 41.585938 30.167969 41.585938 C 32.46875 41.5625 34.496094 40.613281 36.5625 39.703125 C 36.839844 39.585938 37.121094 39.464844 37.398438 39.34375 C 38.480469 38.875 39.5625 38.402344 40.644531 37.925781 C 40.769531 37.871094 40.894531 37.816406 41.027344 37.757812 C 41.265625 37.65625 41.503906 37.550781 41.742188 37.445312 C 41.847656 37.398438 41.957031 37.351562 42.066406 37.304688 C 42.203125 37.242188 42.203125 37.242188 42.34375 37.179688 C 42.824219 36.992188 43.25 36.9375 43.761719 36.929688 C 43.878906 36.925781 43.996094 36.921875 44.117188 36.921875 C 45.039062 37.011719 45.914062 37.433594 46.761719 37.785156 C 46.859375 37.824219 46.957031 37.863281 47.058594 37.902344 C 47.78125 38.203125 48.304688 38.542969 48.824219 39.136719 C 49.089844 39.808594 49.050781 40.523438 48.824219 41.203125 C 48.246094 42.015625 47.476562 42.332031 46.578125 42.703125 C 46.449219 42.757812 46.320312 42.8125 46.1875 42.867188 C 45.769531 43.042969 45.347656 43.21875 44.925781 43.394531 C 44.632812 43.519531 44.339844 43.640625 44.042969 43.765625 C 43.894531 43.828125 43.746094 43.890625 43.597656 43.953125 C 43.527344 43.984375 43.453125 44.015625 43.375 44.046875 C 43.152344 44.140625 42.925781 44.238281 42.703125 44.332031 C 41.441406 44.859375 40.1875 45.402344 38.933594 45.945312 C 37.324219 46.644531 35.710938 47.339844 34.089844 48.015625 C 33.917969 48.089844 33.742188 48.160156 33.570312 48.234375 C 31.292969 49.195312 29.242188 49.398438 26.902344 48.464844 C 26.128906 48.148438 25.363281 47.8125 24.601562 47.476562 C 23.75 47.101562 22.890625 46.734375 22.035156 46.367188 C 21.765625 46.253906 21.492188 46.136719 21.222656 46.019531 C 20.316406 45.632812 19.410156 45.246094 18.5 44.863281 C 18.003906 44.652344 17.503906 44.441406 17.003906 44.226562 C 16.671875 44.085938 16.339844 43.949219 16.007812 43.808594 C 15.503906 43.597656 15 43.382812 14.5 43.171875 C 14.300781 43.085938 14.101562 43.003906 13.902344 42.917969 C 13.621094 42.800781 13.34375 42.683594 13.0625 42.5625 C 12.9375 42.511719 12.9375 42.511719 12.8125 42.460938 C 12.0625 42.136719 11.363281 41.699219 11.039062 40.921875 C 10.960938 40.253906 10.949219 39.667969 11.242188 39.058594 C 11.898438 38.351562 12.628906 38.027344 13.507812 37.65625 C 13.632812 37.601562 13.757812 37.550781 13.886719 37.492188 C 14.597656 37.1875 15.195312 36.945312 15.976562 36.929688 Z M 15.976562 36.929688 "/>
<path style=" stroke:none;fill-rule:nonzero;fill:rgb(9.019608%,40.392157%,85.09804%);fill-opacity:1;" d="M 58.320312 23.761719 C 58.503906 24.097656 58.601562 24.386719 58.65625 24.765625 C 58.671875 24.867188 58.6875 24.96875 58.703125 25.070312 C 58.726562 25.226562 58.726562 25.226562 58.746094 25.386719 C 58.761719 25.488281 58.777344 25.589844 58.792969 25.695312 C 58.996094 27.09375 59.066406 28.480469 59.070312 29.894531 C 59.070312 29.984375 59.070312 30.074219 59.070312 30.164062 C 59.070312 32.054688 58.882812 33.898438 58.558594 35.761719 C 58.519531 35.761719 58.480469 35.761719 58.441406 35.761719 C 58.4375 35.585938 58.433594 35.414062 58.433594 35.242188 C 58.429688 35.144531 58.429688 35.050781 58.429688 34.953125 C 58.4375 34.617188 58.464844 34.292969 58.496094 33.960938 C 58.570312 33.164062 58.601562 32.363281 58.628906 31.558594 C 58.632812 31.40625 58.636719 31.253906 58.644531 31.097656 C 58.851562 28.234375 58.851562 28.234375 58.4375 25.4375 C 58.3125 25.058594 58.296875 24.769531 58.304688 24.375 C 58.308594 24.257812 58.308594 24.144531 58.3125 24.023438 C 58.3125 23.9375 58.316406 23.847656 58.320312 23.761719 Z M 58.320312 23.761719 "/>
<path style=" stroke:none;fill-rule:nonzero;fill:rgb(11.372549%,42.745098%,85.490197%);fill-opacity:1;" d="M 23.761719 58.320312 C 24.539062 58.292969 25.167969 58.34375 25.921875 58.558594 C 27.65625 58.773438 29.421875 58.710938 31.164062 58.585938 C 31.898438 58.542969 32.632812 58.554688 33.371094 58.566406 C 33.472656 58.566406 33.574219 58.566406 33.679688 58.566406 C 33.816406 58.570312 33.816406 58.570312 33.957031 58.570312 C 34.226562 58.570312 34.226562 58.570312 34.558594 58.441406 C 34.746094 58.433594 34.933594 58.429688 35.121094 58.433594 C 35.269531 58.433594 35.269531 58.433594 35.417969 58.4375 C 35.527344 58.4375 35.527344 58.4375 35.640625 58.441406 C 35.640625 58.480469 35.640625 58.519531 35.640625 58.558594 C 35.269531 58.617188 34.898438 58.675781 34.53125 58.734375 C 34.425781 58.75 34.324219 58.765625 34.21875 58.78125 C 30.777344 59.308594 27.160156 59.175781 23.761719 58.441406 C 23.761719 58.402344 23.761719 58.359375 23.761719 58.320312 Z M 23.761719 58.320312 "/>
<path style=" stroke:none;fill-rule:nonzero;fill:rgb(9.411765%,40.000001%,85.490197%);fill-opacity:1;" d="M 35.640625 1.441406 C 35.640625 1.480469 35.640625 1.519531 35.640625 1.558594 C 35.164062 1.542969 34.691406 1.527344 34.214844 1.507812 C 34.011719 1.5 34.011719 1.5 33.804688 1.492188 C 33.675781 1.488281 33.546875 1.484375 33.414062 1.476562 C 33.292969 1.472656 33.175781 1.46875 33.050781 1.464844 C 32.761719 1.441406 32.761719 1.441406 32.519531 1.320312 C 32.304688 1.308594 32.089844 1.304688 31.875 1.304688 C 31.675781 1.304688 31.675781 1.304688 31.46875 1.304688 C 31.324219 1.308594 31.175781 1.308594 31.027344 1.308594 C 30.804688 1.308594 30.804688 1.308594 30.574219 1.308594 C 30.179688 1.308594 29.785156 1.308594 29.386719 1.3125 C 28.984375 1.3125 28.582031 1.3125 28.175781 1.3125 C 27.382812 1.316406 26.59375 1.316406 25.800781 1.320312 C 25.800781 1.398438 25.800781 1.476562 25.800781 1.558594 C 25.324219 1.558594 24.847656 1.558594 24.359375 1.558594 C 24.359375 1.519531 24.359375 1.480469 24.359375 1.441406 C 27.867188 0.605469 32.132812 0.597656 35.640625 1.441406 Z M 35.640625 1.441406 "/>
<path style=" stroke:none;fill-rule:nonzero;fill:rgb(10.588235%,41.568628%,85.490197%);fill-opacity:1;" d="M 1.199219 25.679688 C 1.238281 25.679688 1.277344 25.679688 1.320312 25.679688 C 1.320312 28.175781 1.320312 30.667969 1.320312 33.238281 C 1.398438 33.28125 1.476562 33.320312 1.558594 33.359375 C 1.558594 33.425781 1.558594 33.496094 1.554688 33.5625 C 1.546875 34.460938 1.609375 35.347656 1.679688 36.238281 C 1.492188 35.902344 1.398438 35.613281 1.34375 35.230469 C 1.328125 35.128906 1.3125 35.027344 1.296875 34.921875 C 1.28125 34.816406 1.265625 34.714844 1.253906 34.605469 C 1.238281 34.503906 1.222656 34.402344 1.207031 34.296875 C 1.160156 33.984375 1.121094 33.671875 1.078125 33.359375 C 1.066406 33.269531 1.054688 33.179688 1.042969 33.089844 C 0.921875 32.082031 0.9375 31.070312 0.9375 30.058594 C 0.9375 29.964844 0.9375 29.867188 0.9375 29.769531 C 0.9375 28.394531 0.976562 27.039062 1.199219 25.679688 Z M 1.199219 25.679688 "/>
<path style=" stroke:none;fill-rule:nonzero;fill:rgb(10.588235%,40.392157%,81.568629%);fill-opacity:1;" d="M 3.238281 18.601562 C 3.34375 18.90625 3.363281 19.070312 3.292969 19.394531 C 3.273438 19.488281 3.257812 19.582031 3.238281 19.679688 C 3.320312 19.757812 3.398438 19.839844 3.480469 19.921875 C 3.28125 20.078125 3.085938 20.238281 2.878906 20.398438 C 2.917969 20.597656 2.960938 20.796875 3 21 C 2.839844 21 2.683594 21 2.519531 21 C 2.5 21.128906 2.476562 21.253906 2.453125 21.386719 C 2.183594 22.929688 2.183594 22.929688 1.972656 23.40625 C 1.667969 24.109375 1.644531 24.925781 1.558594 25.679688 C 1.480469 25.679688 1.402344 25.679688 1.320312 25.679688 C 1.328125 23.386719 2.171875 20.621094 3.238281 18.601562 Z M 3.238281 18.601562 "/>
<path style=" stroke:none;fill-rule:nonzero;fill:rgb(11.764706%,42.352942%,89.019608%);fill-opacity:1;" d="M 15 36.839844 C 15.34375 36.832031 15.683594 36.828125 16.027344 36.824219 C 16.125 36.824219 16.21875 36.820312 16.316406 36.820312 C 16.929688 36.8125 17.421875 36.882812 18 37.078125 C 18 37.160156 18 37.238281 18 37.320312 C 18.160156 37.320312 18.316406 37.320312 18.480469 37.320312 C 18.480469 37.398438 18.480469 37.476562 18.480469 37.558594 C 18.71875 37.558594 18.957031 37.558594 19.199219 37.558594 C 19.199219 37.640625 19.199219 37.71875 19.199219 37.800781 C 19.289062 37.816406 19.378906 37.835938 19.46875 37.851562 C 19.742188 37.910156 20.011719 37.96875 20.28125 38.039062 C 20.28125 38.121094 20.28125 38.199219 20.28125 38.28125 C 20.578125 38.339844 20.578125 38.339844 20.878906 38.398438 C 20.878906 38.480469 20.878906 38.558594 20.878906 38.640625 C 19.949219 38.351562 19.066406 37.972656 18.175781 37.578125 C 18.070312 37.53125 17.960938 37.484375 17.851562 37.433594 C 17.707031 37.371094 17.707031 37.371094 17.5625 37.308594 C 16.960938 37.078125 16.382812 37.066406 15.742188 37.074219 C 15.660156 37.074219 15.578125 37.074219 15.492188 37.074219 C 15.285156 37.074219 15.082031 37.078125 14.878906 37.078125 C 14.917969 37 14.960938 36.921875 15 36.839844 Z M 15 36.839844 "/>
<path style=" stroke:none;fill-rule:nonzero;fill:rgb(10.980392%,40.392157%,86.274511%);fill-opacity:1;" d="M 33.359375 38.039062 C 33.4375 38.078125 33.519531 38.121094 33.601562 38.160156 C 33.441406 38.199219 33.28125 38.238281 33.121094 38.28125 C 33.121094 38.359375 33.121094 38.4375 33.121094 38.519531 C 32.09375 39.082031 30.867188 39.027344 29.730469 39.039062 C 29.605469 39.039062 29.484375 39.042969 29.355469 39.042969 C 28.410156 39.042969 27.714844 38.851562 26.878906 38.398438 C 27.203125 38.238281 27.390625 38.34375 27.726562 38.441406 C 29.53125 38.964844 31.195312 38.875 32.953125 38.191406 C 33.089844 38.140625 33.222656 38.089844 33.359375 38.039062 Z M 33.359375 38.039062 "/>
<path style=" stroke:none;fill-rule:nonzero;fill:rgb(9.803922%,40.000001%,85.490197%);fill-opacity:1;" d="M 35.640625 1.558594 C 36.464844 1.628906 37.214844 1.796875 38.011719 2.03125 C 38.121094 2.0625 38.230469 2.097656 38.34375 2.128906 C 38.851562 2.277344 39.351562 2.429688 39.839844 2.640625 C 39.839844 2.679688 39.839844 2.71875 39.839844 2.761719 C 39.363281 2.761719 38.890625 2.761719 38.398438 2.761719 C 38.359375 2.640625 38.320312 2.523438 38.28125 2.398438 C 38.121094 2.398438 37.964844 2.398438 37.800781 2.398438 C 37.800781 2.320312 37.800781 2.242188 37.800781 2.160156 C 37.085938 2.042969 36.375 1.921875 35.640625 1.800781 C 35.640625 1.722656 35.640625 1.640625 35.640625 1.558594 Z M 35.640625 1.558594 "/>
<path style=" stroke:none;fill-rule:nonzero;fill:rgb(12.156863%,39.215687%,80.392158%);fill-opacity:1;" d="M 16.078125 54.71875 C 16.078125 54.878906 16.078125 55.035156 16.078125 55.199219 C 16.285156 55.320312 16.488281 55.4375 16.695312 55.550781 C 16.808594 55.617188 16.921875 55.683594 17.039062 55.75 C 17.40625 55.921875 17.71875 55.992188 18.121094 56.039062 C 18.121094 56.121094 18.121094 56.199219 18.121094 56.28125 C 18.238281 56.320312 18.359375 56.359375 18.480469 56.398438 C 18.480469 56.480469 18.480469 56.558594 18.480469 56.640625 C 17.714844 56.410156 17.023438 56.113281 16.320312 55.734375 C 16.230469 55.683594 16.136719 55.636719 16.042969 55.585938 C 15.375 55.230469 15.375 55.230469 15.238281 54.960938 C 15.808594 54.71875 15.808594 54.71875 16.078125 54.71875 Z M 16.078125 54.71875 "/>
<path style=" stroke:none;fill-rule:nonzero;fill:rgb(15.686275%,45.882353%,91.764706%);fill-opacity:1;" d="M 10.921875 39.121094 C 11.039062 39.160156 11.15625 39.199219 11.28125 39.238281 C 11.242188 39.320312 11.199219 39.398438 11.160156 39.480469 C 11.101562 40.132812 11.074219 40.722656 11.339844 41.332031 C 11.71875 41.71875 12.128906 41.980469 12.601562 42.238281 C 12.320312 42.335938 12.175781 42.378906 11.894531 42.273438 C 11.292969 41.90625 11.292969 41.90625 11.160156 41.640625 C 11.082031 41.640625 11 41.640625 10.921875 41.640625 C 10.894531 41.355469 10.875 41.070312 10.851562 40.785156 C 10.847656 40.707031 10.839844 40.625 10.832031 40.542969 C 10.796875 40.046875 10.816406 39.605469 10.921875 39.121094 Z M 10.921875 39.121094 "/>
<path style=" stroke:none;fill-rule:nonzero;fill:rgb(10.588235%,37.64706%,81.960785%);fill-opacity:1;" d="M 56.761719 40.558594 C 56.839844 40.597656 56.917969 40.640625 57 40.679688 C 56.78125 41.433594 56.484375 42.132812 56.152344 42.839844 C 56.109375 42.933594 56.066406 43.023438 56.023438 43.117188 C 55.710938 43.785156 55.710938 43.785156 55.441406 43.921875 C 55.546875 43.476562 55.671875 43.039062 55.800781 42.601562 C 55.878906 42.601562 55.957031 42.601562 56.039062 42.601562 C 56.039062 42.480469 56.039062 42.363281 56.039062 42.238281 C 56.121094 42.238281 56.199219 42.238281 56.28125 42.238281 C 56.28125 42.042969 56.28125 41.84375 56.28125 41.640625 C 56.359375 41.640625 56.4375 41.640625 56.519531 41.640625 C 56.519531 41.402344 56.519531 41.164062 56.519531 40.921875 C 56.597656 40.921875 56.679688 40.921875 56.761719 40.921875 C 56.761719 40.800781 56.761719 40.683594 56.761719 40.558594 Z M 56.761719 40.558594 "/>
<path style=" stroke:none;fill-rule:nonzero;fill:rgb(7.450981%,37.254903%,88.627452%);fill-opacity:1;" d="M 3.238281 18.601562 C 3.34375 18.90625 3.363281 19.070312 3.292969 19.394531 C 3.273438 19.488281 3.257812 19.582031 3.238281 19.679688 C 3.320312 19.757812 3.398438 19.839844 3.480469 19.921875 C 3.28125 20.078125 3.085938 20.238281 2.878906 20.398438 C 2.917969 20.597656 2.960938 20.796875 3 21 C 2.839844 21 2.683594 21 2.519531 21 C 2.351562 20.492188 2.554688 20.140625 2.746094 19.664062 C 2.777344 19.574219 2.8125 19.488281 2.847656 19.394531 C 3.101562 18.738281 3.101562 18.738281 3.238281 18.601562 Z M 3.238281 18.601562 "/>
<path style=" stroke:none;fill-rule:nonzero;fill:rgb(9.803922%,40.392157%,87.450981%);fill-opacity:1;" d="M 5.160156 14.878906 C 5.199219 14.878906 5.238281 14.878906 5.28125 14.878906 C 5.28125 15.199219 5.28125 15.519531 5.28125 15.839844 C 5.160156 15.839844 5.042969 15.839844 4.921875 15.839844 C 4.878906 15.957031 4.839844 16.078125 4.800781 16.199219 C 4.722656 16.199219 4.640625 16.199219 4.558594 16.199219 C 4.558594 16.554688 4.558594 16.914062 4.558594 17.28125 C 4.363281 17.28125 4.164062 17.28125 3.960938 17.28125 C 4.132812 16.691406 4.386719 16.199219 4.695312 15.675781 C 4.738281 15.597656 4.785156 15.519531 4.832031 15.441406 C 4.941406 15.253906 5.050781 15.066406 5.160156 14.878906 Z M 5.160156 14.878906 "/>
<path style=" stroke:none;fill-rule:nonzero;fill:rgb(10.588235%,41.176471%,80.392158%);fill-opacity:1;" d="M 58.320312 23.761719 C 58.507812 24.101562 58.605469 24.394531 58.664062 24.78125 C 58.675781 24.886719 58.691406 24.988281 58.710938 25.09375 C 58.722656 25.199219 58.738281 25.308594 58.753906 25.417969 C 58.769531 25.523438 58.789062 25.628906 58.804688 25.738281 C 58.890625 26.324219 58.9375 26.886719 58.921875 27.480469 C 58.839844 27.480469 58.761719 27.480469 58.679688 27.480469 C 58.675781 27.367188 58.667969 27.253906 58.664062 27.136719 C 58.652344 26.988281 58.644531 26.839844 58.636719 26.683594 C 58.625 26.539062 58.617188 26.390625 58.609375 26.238281 C 58.574219 25.804688 58.574219 25.804688 58.4375 25.429688 C 58.3125 25.054688 58.296875 24.765625 58.304688 24.375 C 58.308594 24.257812 58.308594 24.144531 58.3125 24.023438 C 58.3125 23.9375 58.316406 23.847656 58.320312 23.761719 Z M 58.320312 23.761719 "/>
<path style=" stroke:none;fill-rule:nonzero;fill:rgb(9.803922%,40.392157%,82.745099%);fill-opacity:1;" d="M 57.480469 20.761719 C 57.773438 21.199219 57.890625 21.621094 58.035156 22.125 C 58.0625 22.214844 58.089844 22.304688 58.117188 22.398438 C 58.253906 22.863281 58.355469 23.269531 58.320312 23.761719 C 58.203125 23.800781 58.082031 23.839844 57.960938 23.878906 C 57.792969 23.378906 57.792969 22.882812 57.765625 22.359375 C 57.71875 21.957031 57.609375 21.621094 57.480469 21.238281 C 57.480469 21.082031 57.480469 20.921875 57.480469 20.761719 Z M 57.480469 20.761719 "/>
<path style=" stroke:none;fill-rule:nonzero;fill:rgb(85.490197%,94.901961%,99.607843%);fill-opacity:1;" d="M 31.320312 11.039062 C 31.320312 11.078125 31.320312 11.121094 31.320312 11.160156 C 31.246094 11.164062 31.175781 11.164062 31.101562 11.167969 C 30.777344 11.183594 30.453125 11.199219 30.128906 11.210938 C 29.957031 11.21875 29.957031 11.21875 29.785156 11.226562 C 29.675781 11.230469 29.566406 11.238281 29.457031 11.242188 C 29.355469 11.246094 29.257812 11.25 29.152344 11.253906 C 28.917969 11.253906 28.917969 11.253906 28.800781 11.398438 C 28.609375 11.449219 28.421875 11.488281 28.230469 11.527344 C 28.125 11.546875 28.023438 11.570312 27.917969 11.589844 C 27.605469 11.640625 27.3125 11.648438 27 11.640625 C 28.261719 10.796875 29.871094 11.003906 31.320312 11.039062 Z M 31.320312 11.039062 "/>
<path style=" stroke:none;fill-rule:nonzero;fill:rgb(12.941177%,43.529412%,88.235295%);fill-opacity:1;" d="M 39.480469 45.601562 C 39.558594 45.640625 39.636719 45.679688 39.71875 45.71875 C 39.171875 46.042969 38.632812 46.320312 38.039062 46.558594 C 37.941406 46.605469 37.839844 46.648438 37.738281 46.691406 C 37.632812 46.738281 37.527344 46.785156 37.417969 46.828125 C 37.269531 46.894531 37.269531 46.894531 37.121094 46.960938 C 36.804688 47.050781 36.667969 47.007812 36.359375 46.921875 C 36.800781 46.730469 37.238281 46.539062 37.679688 46.347656 C 37.828125 46.285156 37.980469 46.21875 38.128906 46.15625 C 38.34375 46.0625 38.558594 45.96875 38.773438 45.878906 C 38.902344 45.820312 39.03125 45.765625 39.167969 45.707031 C 39.269531 45.671875 39.375 45.636719 39.480469 45.601562 Z M 39.480469 45.601562 "/>
<path style=" stroke:none;fill-rule:nonzero;fill:rgb(14.901961%,43.921569%,87.450981%);fill-opacity:1;" d="M 27.121094 30.960938 C 27.714844 31 28.308594 31.039062 28.921875 31.078125 C 28.921875 31.160156 28.921875 31.238281 28.921875 31.320312 C 29.671875 31.320312 30.425781 31.320312 31.199219 31.320312 C 31.199219 31.359375 31.199219 31.398438 31.199219 31.441406 C 30.804688 31.445312 30.410156 31.453125 30.015625 31.453125 C 29.90625 31.457031 29.792969 31.460938 29.679688 31.460938 C 28.796875 31.46875 27.875 31.460938 27.121094 30.960938 Z M 27.121094 30.960938 "/>
<path style=" stroke:none;fill-rule:nonzero;fill:rgb(10.588235%,40.784314%,82.745099%);fill-opacity:1;" d="M 43.558594 55.800781 C 43.226562 55.964844 42.894531 56.125 42.5625 56.289062 C 42.421875 56.359375 42.421875 56.359375 42.277344 56.429688 C 42.1875 56.472656 42.09375 56.515625 42 56.5625 C 41.917969 56.601562 41.835938 56.644531 41.75 56.683594 C 41.519531 56.761719 41.519531 56.761719 41.160156 56.640625 C 41.269531 56.566406 41.378906 56.496094 41.488281 56.421875 C 41.863281 56.183594 41.863281 56.183594 42.113281 55.957031 C 42.574219 55.664062 43.046875 55.628906 43.558594 55.800781 Z M 43.558594 55.800781 "/>
<path style=" stroke:none;fill-rule:nonzero;fill:rgb(8.627451%,39.215687%,80.392158%);fill-opacity:1;" d="M 54.71875 14.761719 C 55.183594 15.277344 55.921875 16.195312 55.921875 16.921875 C 55.839844 16.921875 55.761719 16.921875 55.679688 16.921875 C 55.320312 16.394531 55.320312 16.394531 55.320312 16.078125 C 55.203125 16.121094 55.082031 16.160156 54.960938 16.199219 C 54.941406 16.074219 54.925781 15.949219 54.90625 15.816406 C 54.855469 15.460938 54.792969 15.113281 54.71875 14.761719 Z M 54.71875 14.761719 "/>
<path style=" stroke:none;fill-rule:nonzero;fill:rgb(10.196079%,41.960785%,89.803922%);fill-opacity:1;" d="M 44.039062 33.480469 C 44.121094 33.519531 44.199219 33.558594 44.28125 33.601562 C 43.816406 34.179688 43.816406 34.179688 43.425781 34.238281 C 43.191406 34.238281 42.953125 34.21875 42.71875 34.199219 C 42.71875 34.277344 42.71875 34.359375 42.71875 34.441406 C 42.402344 34.480469 42.085938 34.519531 41.761719 34.558594 C 42.183594 34.277344 42.621094 34.082031 43.085938 33.878906 C 43.175781 33.835938 43.261719 33.796875 43.355469 33.757812 C 43.578125 33.65625 43.808594 33.566406 44.039062 33.480469 Z M 44.039062 33.480469 "/>
<path style=" stroke:none;fill-rule:nonzero;fill:rgb(11.764706%,41.176471%,88.235295%);fill-opacity:1;" d="M 41.878906 15.359375 C 42.445312 15.417969 42.917969 15.476562 43.441406 15.71875 C 43.441406 15.800781 43.441406 15.878906 43.441406 15.960938 C 43.527344 15.976562 43.613281 15.988281 43.703125 16.003906 C 44.039062 16.078125 44.328125 16.171875 44.640625 16.320312 C 44.679688 16.398438 44.71875 16.476562 44.761719 16.558594 C 44.347656 16.488281 43.988281 16.382812 43.601562 16.21875 C 43.5 16.175781 43.402344 16.132812 43.296875 16.089844 C 43.140625 16.019531 43.140625 16.019531 42.984375 15.953125 C 42.875 15.90625 42.769531 15.863281 42.660156 15.816406 C 42.402344 15.703125 42.140625 15.59375 41.878906 15.480469 C 41.878906 15.441406 41.878906 15.402344 41.878906 15.359375 Z M 41.878906 15.359375 "/>
<path style=" stroke:none;fill-rule:nonzero;fill:rgb(9.019608%,40.392157%,87.450981%);fill-opacity:1;" d="M 13.199219 53.640625 C 13.476562 53.679688 13.753906 53.71875 14.039062 53.761719 C 14.039062 53.878906 14.039062 53.996094 14.039062 54.121094 C 14.199219 54.082031 14.355469 54.039062 14.519531 54 C 14.550781 54.097656 14.578125 54.191406 14.609375 54.292969 C 14.726562 54.621094 14.726562 54.621094 15.015625 54.699219 C 15.089844 54.703125 15.164062 54.710938 15.238281 54.71875 C 15.238281 54.800781 15.238281 54.878906 15.238281 54.960938 C 14.738281 54.78125 14.324219 54.53125 13.882812 54.234375 C 13.753906 54.148438 13.625 54.0625 13.492188 53.972656 C 13.398438 53.902344 13.300781 53.832031 13.199219 53.761719 C 13.199219 53.71875 13.199219 53.679688 13.199219 53.640625 Z M 13.199219 53.640625 "/>
<path style=" stroke:none;fill-rule:nonzero;fill:rgb(9.019608%,39.215687%,85.882354%);fill-opacity:1;" d="M 3.839844 42.601562 C 4 42.601562 4.15625 42.601562 4.320312 42.601562 C 4.28125 42.757812 4.242188 42.917969 4.199219 43.078125 C 4.277344 43.078125 4.359375 43.078125 4.441406 43.078125 C 4.472656 43.164062 4.503906 43.25 4.535156 43.335938 C 4.738281 43.816406 5.003906 44.257812 5.261719 44.707031 C 5.308594 44.804688 5.351562 44.902344 5.398438 45 C 5.359375 45.078125 5.320312 45.160156 5.28125 45.238281 C 4.734375 44.382812 4.226562 43.546875 3.839844 42.601562 Z M 3.839844 42.601562 "/>
<path style=" stroke:none;fill-rule:nonzero;fill:rgb(10.980392%,40.784314%,89.019608%);fill-opacity:1;" d="M 32.878906 48.480469 C 32.878906 48.558594 32.878906 48.636719 32.878906 48.71875 C 31.800781 49.371094 30.496094 49.214844 29.28125 49.199219 C 29.28125 49.160156 29.28125 49.121094 29.28125 49.078125 C 29.507812 49.058594 29.507812 49.058594 29.742188 49.039062 C 29.945312 49.019531 30.148438 49 30.351562 48.984375 C 30.453125 48.972656 30.550781 48.964844 30.65625 48.957031 C 31.28125 48.894531 31.832031 48.773438 32.421875 48.554688 C 32.640625 48.480469 32.640625 48.480469 32.878906 48.480469 Z M 32.878906 48.480469 "/>
<path style=" stroke:none;fill-rule:nonzero;fill:rgb(10.980392%,41.176471%,86.666667%);fill-opacity:1;" d="M 20.761719 2.519531 C 20.761719 2.597656 20.761719 2.679688 20.761719 2.761719 C 20.667969 2.789062 20.578125 2.820312 20.484375 2.851562 C 20.304688 2.914062 20.304688 2.914062 20.121094 2.976562 C 20.003906 3.019531 19.886719 3.058594 19.765625 3.101562 C 19.4375 3.21875 19.4375 3.21875 19.242188 3.4375 C 19.1875 3.492188 19.136719 3.546875 19.078125 3.601562 C 18.699219 3.5625 18.699219 3.5625 18.359375 3.480469 C 18.753906 3.152344 19.148438 2.976562 19.628906 2.796875 C 19.765625 2.746094 19.898438 2.691406 20.039062 2.636719 C 20.398438 2.519531 20.398438 2.519531 20.761719 2.519531 Z M 20.761719 2.519531 "/>
<path style=" stroke:none;fill-rule:nonzero;fill:rgb(13.725491%,43.921569%,88.235295%);fill-opacity:1;" d="M 33.359375 38.039062 C 33.4375 38.078125 33.519531 38.121094 33.601562 38.160156 C 33.441406 38.199219 33.28125 38.238281 33.121094 38.28125 C 33.121094 38.359375 33.121094 38.4375 33.121094 38.519531 C 32.4375 38.914062 31.726562 38.894531 30.960938 38.878906 C 30.960938 38.839844 30.960938 38.800781 30.960938 38.761719 C 31.054688 38.738281 31.144531 38.714844 31.242188 38.695312 C 31.824219 38.554688 32.394531 38.414062 32.953125 38.191406 C 33.089844 38.140625 33.222656 38.089844 33.359375 38.039062 Z M 33.359375 38.039062 "/>
<path style=" stroke:none;fill-rule:nonzero;fill:rgb(9.019608%,38.82353%,85.490197%);fill-opacity:1;" d="M 11.039062 7.921875 C 11.039062 8.28125 11.039062 8.28125 10.828125 8.5 C 10.742188 8.574219 10.652344 8.644531 10.558594 8.722656 C 10.472656 8.796875 10.382812 8.871094 10.289062 8.949219 C 10.21875 9.003906 10.152344 9.0625 10.078125 9.121094 C 10.160156 9.199219 10.238281 9.277344 10.320312 9.359375 C 9.933594 9.617188 9.804688 9.625 9.359375 9.601562 C 9.824219 9.003906 10.34375 8.527344 10.921875 8.039062 C 10.960938 8 11 7.960938 11.039062 7.921875 Z M 11.039062 7.921875 "/>
<path style=" stroke:none;fill-rule:nonzero;fill:rgb(12.156863%,41.176471%,80.392158%);fill-opacity:1;" d="M 27.359375 1.078125 C 26.992188 1.292969 26.734375 1.347656 26.308594 1.335938 C 26.214844 1.332031 26.117188 1.332031 26.019531 1.328125 C 25.945312 1.324219 25.875 1.324219 25.800781 1.320312 C 25.800781 1.398438 25.800781 1.476562 25.800781 1.558594 C 25.324219 1.558594 24.847656 1.558594 24.359375 1.558594 C 24.359375 1.519531 24.359375 1.480469 24.359375 1.441406 C 25.355469 1.199219 26.332031 1.054688 27.359375 1.078125 Z M 27.359375 1.078125 "/>
<path style=" stroke:none;fill-rule:nonzero;fill:rgb(10.980392%,40.784314%,81.176472%);fill-opacity:1;" d="M 44.640625 54.601562 C 44.878906 54.601562 45.113281 54.601562 45.359375 54.601562 C 45.070312 54.917969 44.757812 55.125 44.390625 55.34375 C 44.289062 55.40625 44.183594 55.46875 44.074219 55.535156 C 43.800781 55.679688 43.800781 55.679688 43.558594 55.679688 C 43.679688 55.378906 43.757812 55.226562 44.03125 55.050781 C 44.28125 54.960938 44.28125 54.960938 44.640625 54.960938 C 44.640625 54.839844 44.640625 54.722656 44.640625 54.601562 Z M 44.640625 54.601562 "/>
<path style=" stroke:none;fill-rule:nonzero;fill:rgb(12.941177%,42.745098%,88.235295%);fill-opacity:1;" d="M 23.160156 39.601562 C 23.476562 39.640625 23.792969 39.679688 24.121094 39.71875 C 24.121094 39.800781 24.121094 39.878906 24.121094 39.960938 C 24.199219 39.972656 24.28125 39.984375 24.367188 39.996094 C 25.429688 40.175781 25.429688 40.175781 25.800781 40.679688 C 25.207031 40.597656 24.6875 40.363281 24.140625 40.132812 C 24 40.074219 24 40.074219 23.855469 40.011719 C 23.625 39.914062 23.390625 39.816406 23.160156 39.71875 C 23.160156 39.679688 23.160156 39.640625 23.160156 39.601562 Z M 23.160156 39.601562 "/>
<path style=" stroke:none;fill-rule:nonzero;fill:rgb(8.627451%,37.64706%,85.490197%);fill-opacity:1;" d="M 55.921875 16.921875 C 56.332031 17.371094 56.46875 17.90625 56.640625 18.480469 C 56.519531 18.480469 56.402344 18.480469 56.28125 18.480469 C 56.28125 18.359375 56.28125 18.242188 56.28125 18.121094 C 56.160156 18.082031 56.042969 18.039062 55.921875 18 C 55.921875 17.644531 55.921875 17.289062 55.921875 16.921875 Z M 55.921875 16.921875 "/>
<path style=" stroke:none;fill-rule:nonzero;fill:rgb(6.666667%,40.392157%,92.941177%);fill-opacity:1;" d="M 11.160156 51.960938 C 11.488281 51.929688 11.488281 51.929688 11.878906 51.960938 C 12.164062 52.199219 12.164062 52.199219 12.359375 52.441406 C 12.28125 52.597656 12.203125 52.757812 12.121094 52.921875 C 11.960938 52.78125 11.800781 52.644531 11.640625 52.507812 C 11.550781 52.429688 11.460938 52.355469 11.371094 52.277344 C 11.300781 52.210938 11.230469 52.144531 11.160156 52.078125 C 11.160156 52.039062 11.160156 52 11.160156 51.960938 Z M 11.160156 51.960938 "/>
<path style=" stroke:none;fill-rule:nonzero;fill:rgb(10.588235%,35.686275%,85.09804%);fill-opacity:1;" d="M 57.839844 37.679688 C 58.054688 38.179688 57.839844 38.609375 57.667969 39.089844 C 57.636719 39.171875 57.609375 39.257812 57.578125 39.34375 C 57.507812 39.550781 57.433594 39.753906 57.359375 39.960938 C 57.320312 39.960938 57.28125 39.960938 57.238281 39.960938 C 57.21875 39.414062 57.242188 39.015625 57.480469 38.519531 C 57.558594 38.519531 57.636719 38.519531 57.71875 38.519531 C 57.71875 38.402344 57.714844 38.289062 57.710938 38.167969 C 57.71875 37.800781 57.71875 37.800781 57.839844 37.679688 Z M 57.839844 37.679688 "/>
<path style=" stroke:none;fill-rule:nonzero;fill:rgb(7.843138%,38.82353%,86.666667%);fill-opacity:1;" d="M 7.078125 47.640625 C 7.199219 47.640625 7.316406 47.640625 7.441406 47.640625 C 7.519531 47.839844 7.597656 48.035156 7.679688 48.238281 C 7.796875 48.238281 7.917969 48.238281 8.039062 48.238281 C 8.160156 48.597656 8.277344 48.953125 8.398438 49.320312 C 7.933594 48.867188 7.464844 48.40625 7.078125 47.878906 C 7.078125 47.800781 7.078125 47.722656 7.078125 47.640625 Z M 7.078125 47.640625 "/>
<path style=" stroke:none;fill-rule:nonzero;fill:rgb(12.941177%,40.000001%,81.960785%);fill-opacity:1;" d="M 55.320312 43.921875 C 55.359375 44 55.398438 44.078125 55.441406 44.160156 C 55.3125 44.421875 55.3125 44.421875 55.117188 44.730469 C 55.050781 44.835938 54.984375 44.945312 54.914062 45.054688 C 54.851562 45.15625 54.785156 45.253906 54.71875 45.359375 C 54.671875 45.4375 54.621094 45.519531 54.570312 45.597656 C 54.464844 45.761719 54.351562 45.921875 54.238281 46.078125 C 54.199219 46.078125 54.160156 46.078125 54.121094 46.078125 C 54.121094 45.882812 54.121094 45.683594 54.121094 45.480469 C 54.199219 45.480469 54.277344 45.480469 54.359375 45.480469 C 54.359375 45.402344 54.359375 45.320312 54.359375 45.238281 C 54.480469 45.117188 54.597656 45 54.71875 44.878906 C 54.832031 44.714844 54.9375 44.546875 55.042969 44.378906 C 55.09375 44.292969 55.148438 44.207031 55.203125 44.117188 C 55.242188 44.050781 55.28125 43.988281 55.320312 43.921875 Z M 55.320312 43.921875 "/>
<path style=" stroke:none;fill-rule:nonzero;fill:rgb(11.372549%,43.137255%,90.196079%);fill-opacity:1;" d="M 45.601562 43.078125 C 45.558594 43.199219 45.519531 43.316406 45.480469 43.441406 C 45.207031 43.570312 44.949219 43.671875 44.664062 43.769531 C 44.585938 43.796875 44.511719 43.824219 44.433594 43.855469 C 44.007812 44.003906 43.75 44.054688 43.320312 43.921875 C 43.65625 43.78125 43.988281 43.640625 44.324219 43.5 C 44.46875 43.441406 44.46875 43.441406 44.613281 43.378906 C 44.703125 43.339844 44.796875 43.304688 44.890625 43.265625 C 44.972656 43.230469 45.058594 43.195312 45.144531 43.15625 C 45.359375 43.078125 45.359375 43.078125 45.601562 43.078125 Z M 45.601562 43.078125 "/>
<path style=" stroke:none;fill-rule:nonzero;fill:rgb(9.803922%,40.784314%,81.568629%);fill-opacity:1;" d="M 58.320312 35.761719 C 58.484375 36.210938 58.390625 36.535156 58.265625 36.988281 C 58.234375 37.121094 58.199219 37.25 58.164062 37.382812 C 58.136719 37.480469 58.109375 37.578125 58.078125 37.679688 C 58.039062 37.679688 58 37.679688 57.960938 37.679688 C 57.894531 36.273438 57.894531 36.273438 58.320312 35.761719 Z M 58.320312 35.761719 "/>
<path style=" stroke:none;fill-rule:nonzero;fill:rgb(10.196079%,38.039216%,79.607844%);fill-opacity:1;" d="M 56.640625 18.480469 C 56.949219 18.789062 57.042969 19.085938 57.203125 19.492188 C 57.257812 19.632812 57.3125 19.769531 57.367188 19.910156 C 57.480469 20.28125 57.480469 20.28125 57.359375 20.640625 C 56.828125 19.9375 56.660156 19.359375 56.640625 18.480469 Z M 56.640625 18.480469 "/>
<path style=" stroke:none;fill-rule:nonzero;fill:rgb(12.156863%,39.607844%,81.176472%);fill-opacity:1;" d="M 18.480469 56.640625 C 19.132812 56.554688 19.546875 56.785156 20.105469 57.085938 C 20.398438 57.238281 20.691406 57.363281 21 57.480469 C 20.761719 57.601562 20.761719 57.601562 20.328125 57.460938 C 20.15625 57.398438 19.980469 57.332031 19.808594 57.261719 C 19.71875 57.230469 19.632812 57.195312 19.542969 57.164062 C 19.152344 57.011719 18.832031 56.875 18.480469 56.640625 Z M 18.480469 56.640625 "/>
<path style=" stroke:none;fill-rule:nonzero;fill:rgb(11.764706%,41.960785%,87.843138%);fill-opacity:1;" d="M 24.839844 37.320312 C 25.851562 37.734375 25.851562 37.734375 26.878906 38.160156 C 26.878906 38.199219 26.878906 38.238281 26.878906 38.28125 C 26.640625 38.28125 26.40625 38.28125 26.160156 38.28125 C 26.160156 38.199219 26.160156 38.121094 26.160156 38.039062 C 26.085938 38.027344 26.007812 38.015625 25.933594 38.003906 C 25.785156 37.976562 25.785156 37.976562 25.636719 37.949219 C 25.488281 37.925781 25.488281 37.925781 25.339844 37.898438 C 25.078125 37.800781 25.078125 37.800781 24.839844 37.320312 Z M 24.839844 37.320312 "/>
<path style=" stroke:none;fill-rule:nonzero;fill:rgb(84.313726%,94.117647%,99.607843%);fill-opacity:1;" d="M 17.160156 15.839844 C 17.160156 15.917969 17.160156 16 17.160156 16.078125 C 16.566406 16.5 15.96875 16.722656 15.238281 16.679688 C 15.535156 16.382812 15.8125 16.285156 16.199219 16.125 C 16.328125 16.070312 16.457031 16.019531 16.589844 15.960938 C 16.921875 15.839844 16.921875 15.839844 17.160156 15.839844 Z M 17.160156 15.839844 "/>
<path style=" stroke:none;fill-rule:nonzero;fill:rgb(11.764706%,43.137255%,88.627452%);fill-opacity:1;" d="M 40.078125 35.160156 C 40.160156 35.199219 40.238281 35.238281 40.320312 35.28125 C 40.046875 35.554688 39.84375 35.621094 39.480469 35.761719 C 39.339844 35.828125 39.199219 35.894531 39.050781 35.960938 C 38.632812 36.121094 38.558594 36.128906 38.160156 36 C 38.472656 35.855469 38.789062 35.714844 39.105469 35.574219 C 39.238281 35.511719 39.238281 35.511719 39.375 35.449219 C 39.609375 35.34375 39.84375 35.25 40.078125 35.160156 Z M 40.078125 35.160156 "/>
<path style=" stroke:none;fill-rule:nonzero;fill:rgb(82.745099%,92.54902%,99.607843%);fill-opacity:1;" d="M 13.921875 32.640625 C 14.484375 32.699219 14.960938 32.757812 15.480469 33 C 15.480469 33.078125 15.480469 33.160156 15.480469 33.238281 C 15.636719 33.238281 15.796875 33.238281 15.960938 33.238281 C 15.960938 33.320312 15.960938 33.398438 15.960938 33.480469 C 15.257812 33.28125 14.585938 33.0625 13.921875 32.761719 C 13.921875 32.71875 13.921875 32.679688 13.921875 32.640625 Z M 13.921875 32.640625 "/>
<path style=" stroke:none;fill-rule:nonzero;fill:rgb(80.784315%,91.764706%,99.607843%);fill-opacity:1;" d="M 32.398438 31.320312 C 31.84375 31.601562 31.347656 31.589844 30.742188 31.574219 C 30.601562 31.574219 30.601562 31.574219 30.457031 31.570312 C 30.222656 31.570312 29.992188 31.566406 29.761719 31.558594 C 29.761719 31.519531 29.761719 31.480469 29.761719 31.441406 C 30.109375 31.394531 30.460938 31.355469 30.808594 31.3125 C 30.957031 31.292969 30.957031 31.292969 31.109375 31.273438 C 31.207031 31.261719 31.300781 31.253906 31.402344 31.242188 C 31.488281 31.230469 31.578125 31.21875 31.667969 31.207031 C 31.933594 31.199219 32.144531 31.242188 32.398438 31.320312 Z M 32.398438 31.320312 "/>
<path style=" stroke:none;fill-rule:nonzero;fill:rgb(9.411765%,40.784314%,89.803922%);fill-opacity:1;" d="M 13.800781 16.679688 C 14.039062 16.800781 14.039062 16.800781 14.039062 16.800781 Z M 13.558594 16.800781 C 13.835938 16.839844 14.113281 16.878906 14.398438 16.921875 C 14.128906 17.191406 13.914062 17.277344 13.558594 17.414062 C 13.453125 17.457031 13.347656 17.5 13.238281 17.542969 C 12.960938 17.640625 12.960938 17.640625 12.71875 17.640625 C 12.71875 17.5625 12.71875 17.480469 12.71875 17.398438 C 12.996094 17.28125 13.273438 17.164062 13.558594 17.039062 C 13.558594 16.960938 13.558594 16.882812 13.558594 16.800781 Z M 13.558594 16.800781 "/>
<path style=" stroke:none;fill-rule:nonzero;fill:rgb(6.27451%,40.000001%,87.450981%);fill-opacity:1;" d="M 49.320312 8.398438 C 49.476562 8.511719 49.628906 8.625 49.785156 8.738281 C 49.871094 8.800781 49.957031 8.863281 50.046875 8.925781 C 50.28125 9.121094 50.28125 9.121094 50.519531 9.480469 C 50.402344 9.539062 50.402344 9.539062 50.28125 9.601562 C 50.242188 9.519531 50.199219 9.441406 50.160156 9.359375 C 50.046875 9.335938 50.046875 9.335938 49.933594 9.308594 C 49.625 9.226562 49.507812 9.136719 49.320312 8.878906 C 49.320312 8.722656 49.320312 8.5625 49.320312 8.398438 Z M 49.320312 8.398438 "/>
<path style=" stroke:none;fill-rule:nonzero;fill:rgb(12.941177%,43.529412%,89.803922%);fill-opacity:1;" d="M 43.199219 23.640625 C 43.199219 23.757812 43.199219 23.878906 43.199219 24 C 42.683594 24.199219 42.171875 24.394531 41.640625 24.601562 C 41.601562 24.519531 41.5625 24.441406 41.519531 24.359375 C 42.074219 24.121094 42.628906 23.886719 43.199219 23.640625 Z M 43.199219 23.640625 "/>
<path style=" stroke:none;fill-rule:nonzero;fill:rgb(82.352942%,93.333334%,99.607843%);fill-opacity:1;" d="M 42.839844 15.839844 C 43.496094 16.050781 44.132812 16.277344 44.761719 16.558594 C 44.28125 16.753906 43.914062 16.59375 43.441406 16.441406 C 43.441406 16.359375 43.441406 16.28125 43.441406 16.199219 C 43.242188 16.199219 43.042969 16.199219 42.839844 16.199219 C 42.839844 16.082031 42.839844 15.960938 42.839844 15.839844 Z M 42.839844 15.839844 "/>
<path style=" stroke:none;fill-rule:nonzero;fill:rgb(13.725491%,43.921569%,88.627452%);fill-opacity:1;" d="M 35.398438 12.601562 C 35.90625 12.578125 36.261719 12.625 36.71875 12.839844 C 36.71875 12.917969 36.71875 13 36.71875 13.078125 C 36.917969 13.121094 37.117188 13.160156 37.320312 13.199219 C 37.320312 13.277344 37.320312 13.359375 37.320312 13.441406 C 36.664062 13.230469 36.027344 13 35.398438 12.71875 C 35.398438 12.679688 35.398438 12.640625 35.398438 12.601562 Z M 35.398438 12.601562 "/>
<path style=" stroke:none;fill-rule:nonzero;fill:rgb(7.058824%,39.607844%,89.411765%);fill-opacity:1;" d="M 52.320312 11.519531 C 52.714844 11.894531 53.019531 12.242188 53.28125 12.71875 C 53.160156 12.71875 53.042969 12.71875 52.921875 12.71875 C 52.839844 12.640625 52.761719 12.5625 52.679688 12.480469 C 52.617188 12.429688 52.550781 12.375 52.484375 12.324219 C 52.261719 12.050781 52.292969 11.863281 52.320312 11.519531 Z M 52.320312 11.519531 "/>
<path style=" stroke:none;fill-rule:nonzero;fill:rgb(83.529413%,93.725491%,99.607843%);fill-opacity:1;" d="M 48.839844 40.199219 C 48.878906 40.199219 48.917969 40.199219 48.960938 40.199219 C 48.917969 40.976562 48.800781 41.332031 48.238281 41.878906 C 48.160156 41.878906 48.082031 41.878906 48 41.878906 C 48.039062 41.761719 48.078125 41.640625 48.121094 41.519531 C 48.199219 41.519531 48.277344 41.519531 48.359375 41.519531 C 48.359375 41.402344 48.359375 41.28125 48.359375 41.160156 C 48.4375 41.160156 48.519531 41.160156 48.601562 41.160156 C 48.617188 41.089844 48.632812 41.019531 48.652344 40.949219 C 48.714844 40.699219 48.777344 40.449219 48.839844 40.199219 Z M 48.839844 40.199219 "/>
<path style=" stroke:none;fill-rule:nonzero;fill:rgb(7.450981%,39.215687%,88.627452%);fill-opacity:1;" d="M 2.039062 37.800781 C 2.335938 37.859375 2.335938 37.859375 2.640625 37.921875 C 2.601562 38.238281 2.5625 38.554688 2.519531 38.878906 C 2.441406 38.878906 2.363281 38.878906 2.28125 38.878906 C 2.199219 38.523438 2.121094 38.167969 2.039062 37.800781 Z M 2.039062 37.800781 "/>
<path style=" stroke:none;fill-rule:nonzero;fill:rgb(83.529413%,94.117647%,100%);fill-opacity:1;" d="M 48.71875 18.839844 C 49.058594 19.351562 49.023438 19.800781 48.960938 20.398438 C 48.78125 20.835938 48.78125 20.835938 48.601562 21.121094 C 48.488281 20.757812 48.476562 20.65625 48.601562 20.28125 C 48.679688 20.28125 48.757812 20.28125 48.839844 20.28125 C 48.800781 19.804688 48.761719 19.328125 48.71875 18.839844 Z M 48.71875 18.839844 "/>
<path style=" stroke:none;fill-rule:nonzero;fill:rgb(12.54902%,41.960785%,88.235295%);fill-opacity:1;" d="M 48.480469 41.519531 C 48.480469 41.640625 48.480469 41.757812 48.480469 41.878906 C 48.265625 42.074219 48.265625 42.074219 47.976562 42.261719 C 47.882812 42.324219 47.789062 42.390625 47.695312 42.457031 C 47.367188 42.617188 47.160156 42.628906 46.800781 42.601562 C 47.179688 42.285156 47.582031 42.082031 48.023438 41.875 C 48.261719 41.761719 48.261719 41.761719 48.480469 41.519531 Z M 48.480469 41.519531 "/>
<path style=" stroke:none;fill-rule:nonzero;fill:rgb(8.235294%,41.176471%,91.37255%);fill-opacity:1;" d="M 36.480469 39.71875 C 36.15625 40.042969 35.824219 40.164062 35.398438 40.320312 C 35.28125 40.28125 35.164062 40.242188 35.039062 40.199219 C 35.078125 40.082031 35.121094 39.960938 35.160156 39.839844 C 35.578125 39.664062 36.03125 39.710938 36.480469 39.71875 Z M 36.480469 39.71875 "/>
<path style=" stroke:none;fill-rule:nonzero;fill:rgb(12.156863%,43.137255%,89.411765%);fill-opacity:1;" d="M 21 38.640625 C 21.199219 38.640625 21.394531 38.640625 21.601562 38.640625 C 21.601562 38.71875 21.601562 38.796875 21.601562 38.878906 C 21.957031 38.9375 21.957031 38.9375 22.320312 39 C 22.359375 38.921875 22.398438 38.839844 22.441406 38.761719 C 22.441406 38.839844 22.441406 38.917969 22.441406 39 C 22.519531 39.039062 22.597656 39.078125 22.679688 39.121094 C 22.640625 39.199219 22.601562 39.277344 22.558594 39.359375 C 21.410156 39.011719 21.410156 39.011719 21 38.640625 Z M 21 38.640625 "/>
<path style=" stroke:none;fill-rule:nonzero;fill:rgb(83.137256%,92.54902%,99.607843%);fill-opacity:1;" d="M 14.039062 37.441406 C 14.121094 37.480469 14.199219 37.519531 14.28125 37.558594 C 14.121094 37.679688 13.964844 37.796875 13.800781 37.921875 C 13.722656 37.878906 13.640625 37.839844 13.558594 37.800781 C 13.558594 37.878906 13.558594 37.957031 13.558594 38.039062 C 13.097656 38.21875 12.832031 38.308594 12.359375 38.160156 C 12.632812 38.035156 12.910156 37.914062 13.183594 37.792969 C 13.261719 37.757812 13.339844 37.722656 13.421875 37.683594 C 13.625 37.597656 13.832031 37.515625 14.039062 37.441406 Z M 14.039062 37.441406 "/>
<path style=" stroke:none;fill-rule:nonzero;fill:rgb(80.784315%,91.764706%,98.823529%);fill-opacity:1;" d="M 48.839844 29.28125 C 48.878906 29.28125 48.917969 29.28125 48.960938 29.28125 C 48.96875 29.507812 48.976562 29.734375 48.984375 29.960938 C 48.988281 30.089844 48.992188 30.214844 48.996094 30.347656 C 48.957031 30.761719 48.839844 30.980469 48.601562 31.320312 C 48.523438 31.109375 48.523438 31.109375 48.480469 30.839844 C 48.515625 30.765625 48.554688 30.695312 48.59375 30.617188 C 48.734375 30.332031 48.765625 30.109375 48.796875 29.789062 C 48.804688 29.695312 48.8125 29.597656 48.820312 29.5 C 48.828125 29.425781 48.832031 29.355469 48.839844 29.28125 Z M 48.839844 29.28125 "/>
<path style=" stroke:none;fill-rule:nonzero;fill:rgb(9.803922%,41.960785%,90.196079%);fill-opacity:1;" d="M 25.921875 27.71875 C 26.445312 27.800781 26.878906 27.984375 27.359375 28.199219 C 27.359375 28.238281 27.359375 28.277344 27.359375 28.320312 C 27.082031 28.359375 26.804688 28.398438 26.519531 28.441406 C 26.480469 28.28125 26.441406 28.125 26.398438 27.960938 C 26.242188 27.921875 26.082031 27.878906 25.921875 27.839844 C 25.921875 27.800781 25.921875 27.761719 25.921875 27.71875 Z M 25.921875 27.71875 "/>
<path style=" stroke:none;fill-rule:nonzero;fill:rgb(12.941177%,43.921569%,89.411765%);fill-opacity:1;" d="M 46.078125 17.160156 C 46.316406 17.160156 46.554688 17.160156 46.800781 17.160156 C 46.800781 17.238281 46.800781 17.320312 46.800781 17.398438 C 46.929688 17.421875 46.929688 17.421875 47.0625 17.445312 C 47.394531 17.519531 47.6875 17.625 48 17.761719 C 47.921875 17.839844 47.839844 17.917969 47.761719 18 C 47.207031 17.761719 46.652344 17.523438 46.078125 17.28125 C 46.078125 17.242188 46.078125 17.199219 46.078125 17.160156 Z M 46.078125 17.160156 "/>
<path style=" stroke:none;fill-rule:nonzero;fill:rgb(10.588235%,42.352942%,90.980393%);fill-opacity:1;" d="M 36.480469 26.519531 C 36.519531 26.597656 36.558594 26.679688 36.601562 26.761719 C 36.402344 26.839844 36.203125 26.917969 36 27 C 36 27.117188 36 27.238281 36 27.359375 C 35.722656 27.320312 35.445312 27.28125 35.160156 27.238281 C 35.570312 26.894531 35.988281 26.71875 36.480469 26.519531 Z M 36.480469 26.519531 "/>
<path style=" stroke:none;fill-rule:nonzero;fill:rgb(5.882353%,39.607844%,91.764706%);fill-opacity:1;" d="M 5.160156 14.878906 C 5.199219 14.878906 5.238281 14.878906 5.28125 14.878906 C 5.28125 15.199219 5.28125 15.519531 5.28125 15.839844 C 5.160156 15.839844 5.042969 15.839844 4.921875 15.839844 C 4.878906 15.957031 4.839844 16.078125 4.800781 16.199219 C 4.761719 16.121094 4.722656 16.042969 4.679688 15.960938 C 4.824219 15.589844 4.984375 15.234375 5.160156 14.878906 Z M 5.160156 14.878906 "/>
<path style=" stroke:none;fill-rule:nonzero;fill:rgb(8.235294%,40.000001%,86.666667%);fill-opacity:1;" d="M 16.078125 54.71875 C 16.078125 54.878906 16.078125 55.035156 16.078125 55.199219 C 16.160156 55.277344 16.238281 55.359375 16.320312 55.441406 C 15.65625 55.367188 15.65625 55.367188 15.375 55.132812 C 15.332031 55.074219 15.285156 55.019531 15.238281 54.960938 C 15.808594 54.71875 15.808594 54.71875 16.078125 54.71875 Z M 16.078125 54.71875 "/>
<path style=" stroke:none;fill-rule:nonzero;fill:rgb(82.745099%,93.333334%,99.215686%);fill-opacity:1;" d="M 21.601562 46.078125 C 22.25 46.136719 22.703125 46.230469 23.28125 46.558594 C 23.28125 46.640625 23.28125 46.71875 23.28125 46.800781 C 22.714844 46.613281 22.148438 46.429688 21.601562 46.199219 C 21.601562 46.160156 21.601562 46.121094 21.601562 46.078125 Z M 21.601562 46.078125 "/>
<path style=" stroke:none;fill-rule:nonzero;fill:rgb(11.764706%,41.568628%,88.235295%);fill-opacity:1;" d="M 14.28125 43.078125 C 14.886719 43.160156 15.410156 43.421875 15.960938 43.679688 C 15.578125 43.804688 15.507812 43.8125 15.121094 43.636719 C 15 43.570312 14.882812 43.507812 14.761719 43.441406 C 14.492188 43.359375 14.492188 43.359375 14.28125 43.320312 C 14.28125 43.242188 14.28125 43.160156 14.28125 43.078125 Z M 14.28125 43.078125 "/>
<path style=" stroke:none;fill-rule:nonzero;fill:rgb(14.901961%,38.431373%,79.215688%);fill-opacity:1;" d="M 56.039062 42.238281 C 56.078125 42.238281 56.121094 42.238281 56.160156 42.238281 C 56.105469 42.925781 55.925781 43.339844 55.558594 43.921875 C 55.421875 43.511719 55.457031 43.441406 55.613281 43.058594 C 55.648438 42.972656 55.679688 42.886719 55.71875 42.796875 C 55.746094 42.730469 55.773438 42.667969 55.800781 42.601562 C 55.878906 42.601562 55.957031 42.601562 56.039062 42.601562 C 56.039062 42.480469 56.039062 42.363281 56.039062 42.238281 Z M 56.039062 42.238281 "/>
<path style=" stroke:none;fill-rule:nonzero;fill:rgb(23.529412%,49.411765%,91.37255%);fill-opacity:1;" d="M 10.921875 29.640625 C 10.960938 29.640625 11 29.640625 11.039062 29.640625 C 11.050781 29.738281 11.0625 29.832031 11.074219 29.933594 C 11.195312 30.90625 11.195312 30.90625 11.761719 31.679688 C 11.640625 31.679688 11.523438 31.679688 11.398438 31.679688 C 10.914062 30.984375 10.859375 30.476562 10.921875 29.640625 Z M 10.921875 29.640625 "/>
<path style=" stroke:none;fill-rule:nonzero;fill:rgb(11.764706%,36.470589%,85.09804%);fill-opacity:1;" d="M 2.398438 39 C 2.480469 39 2.558594 39 2.640625 39 C 3.050781 40.011719 3.050781 40.011719 3 40.558594 C 2.753906 40.3125 2.683594 40.167969 2.566406 39.847656 C 2.519531 39.722656 2.519531 39.722656 2.46875 39.597656 C 2.398438 39.359375 2.398438 39.359375 2.398438 39 Z M 2.398438 39 "/>
<path style=" stroke:none;fill-rule:nonzero;fill:rgb(84.705883%,94.117647%,99.607843%);fill-opacity:1;" d="M 41.160156 34.800781 C 40.945312 34.902344 40.730469 35 40.515625 35.101562 C 40.335938 35.183594 40.335938 35.183594 40.152344 35.269531 C 39.839844 35.398438 39.839844 35.398438 39.601562 35.398438 C 39.601562 35.320312 39.601562 35.242188 39.601562 35.160156 C 39.769531 35.074219 39.9375 34.992188 40.109375 34.914062 C 40.203125 34.867188 40.300781 34.820312 40.398438 34.773438 C 40.710938 34.667969 40.855469 34.6875 41.160156 34.800781 Z M 41.160156 34.800781 "/>
<path style=" stroke:none;fill-rule:nonzero;fill:rgb(86.666667%,96.078432%,99.607843%);fill-opacity:1;" d="M 11.160156 18.839844 C 11.289062 19.285156 11.28125 19.675781 11.261719 20.132812 C 11.28125 20.433594 11.371094 20.621094 11.519531 20.878906 C 11.402344 20.878906 11.28125 20.878906 11.160156 20.878906 C 11.03125 20.492188 11.023438 20.199219 11.023438 19.792969 C 11.023438 19.664062 11.023438 19.539062 11.023438 19.40625 C 11.039062 19.078125 11.039062 19.078125 11.160156 18.839844 Z M 11.160156 18.839844 "/>
<path style=" stroke:none;fill-rule:nonzero;fill:rgb(85.882354%,94.901961%,99.607843%);fill-opacity:1;" d="M 45.359375 16.921875 C 45.875 17.117188 46.390625 17.316406 46.921875 17.519531 C 46.921875 17.558594 46.921875 17.597656 46.921875 17.640625 C 46.683594 17.679688 46.445312 17.71875 46.199219 17.761719 C 46.199219 17.640625 46.199219 17.523438 46.199219 17.398438 C 45.921875 17.320312 45.644531 17.242188 45.359375 17.160156 C 45.359375 17.082031 45.359375 17 45.359375 16.921875 Z M 45.359375 16.921875 "/>
<path style=" stroke:none;fill-rule:nonzero;fill:rgb(9.803922%,40.392157%,85.09804%);fill-opacity:1;" d="M 7.078125 12.121094 C 7.15625 12.335938 7.15625 12.335938 7.199219 12.601562 C 7.082031 12.777344 7.082031 12.777344 6.960938 12.960938 C 6.839844 12.960938 6.722656 12.960938 6.601562 12.960938 C 6.519531 13.117188 6.441406 13.277344 6.359375 13.441406 C 6.359375 13.007812 6.457031 12.910156 6.71875 12.578125 C 6.785156 12.492188 6.855469 12.40625 6.921875 12.316406 C 6.972656 12.253906 7.027344 12.1875 7.078125 12.121094 Z M 7.078125 12.121094 "/>
<path style=" stroke:none;fill-rule:nonzero;fill:rgb(9.019608%,40.784314%,89.019608%);fill-opacity:1;" d="M 51.238281 10.320312 C 51.378906 10.433594 51.519531 10.550781 51.660156 10.664062 C 51.777344 10.761719 51.777344 10.761719 51.894531 10.859375 C 51.957031 10.917969 52.015625 10.976562 52.078125 11.039062 C 52.078125 11.121094 52.078125 11.199219 52.078125 11.28125 C 51.921875 11.28125 51.761719 11.28125 51.601562 11.28125 C 51.558594 11.082031 51.519531 10.882812 51.480469 10.679688 C 51.359375 10.640625 51.242188 10.601562 51.121094 10.558594 C 51.160156 10.480469 51.199219 10.402344 51.238281 10.320312 Z M 51.238281 10.320312 "/>
<path style=" stroke:none;fill-rule:nonzero;fill:rgb(83.529413%,94.509804%,100%);fill-opacity:1;" d="M 19.078125 45 C 19.355469 45 19.632812 45 19.921875 45 C 19.921875 45.078125 19.921875 45.160156 19.921875 45.238281 C 19.996094 45.253906 20.074219 45.269531 20.152344 45.285156 C 20.234375 45.308594 20.316406 45.335938 20.398438 45.359375 C 20.441406 45.4375 20.480469 45.519531 20.519531 45.601562 C 20.324219 45.546875 20.128906 45.492188 19.933594 45.433594 C 19.773438 45.390625 19.773438 45.390625 19.605469 45.34375 C 19.320312 45.238281 19.320312 45.238281 19.078125 45 Z M 19.078125 45 "/>
<path style=" stroke:none;fill-rule:nonzero;fill:rgb(10.980392%,42.352942%,89.411765%);fill-opacity:1;" d="M 41.519531 34.558594 C 41.597656 34.597656 41.679688 34.640625 41.761719 34.679688 C 41.800781 34.796875 41.839844 34.917969 41.878906 35.039062 C 41.695312 35.035156 41.695312 35.035156 41.503906 35.03125 C 41.09375 35.039062 40.722656 35.082031 40.320312 35.160156 C 40.707031 34.902344 41.085938 34.726562 41.519531 34.558594 Z M 41.519531 34.558594 "/>
<path style=" stroke:none;fill-rule:nonzero;fill:rgb(8.627451%,39.215687%,88.235295%);fill-opacity:1;" d="M 9.238281 9.601562 C 9.28125 9.71875 9.320312 9.835938 9.359375 9.960938 C 9.4375 10.039062 9.519531 10.117188 9.601562 10.199219 C 9.066406 10.378906 9.066406 10.378906 8.519531 10.558594 C 8.726562 10.191406 8.925781 9.882812 9.238281 9.601562 Z M 9.238281 9.601562 "/>
<path style=" stroke:none;fill-rule:nonzero;fill:rgb(5.098039%,39.607844%,91.37255%);fill-opacity:1;" d="M 46.320312 53.160156 C 46.636719 53.199219 46.953125 53.238281 47.28125 53.28125 C 47.125 53.445312 46.964844 53.605469 46.800781 53.761719 C 46.722656 53.761719 46.640625 53.761719 46.558594 53.761719 C 46.558594 53.679688 46.558594 53.601562 46.558594 53.519531 C 46.480469 53.519531 46.402344 53.519531 46.320312 53.519531 C 46.320312 53.402344 46.320312 53.28125 46.320312 53.160156 Z M 46.320312 53.160156 "/>
<path style=" stroke:none;fill-rule:nonzero;fill:rgb(7.843138%,41.176471%,91.764706%);fill-opacity:1;" d="M 23.28125 46.921875 C 23.738281 46.984375 24.007812 47.101562 24.359375 47.398438 C 24.042969 47.441406 23.726562 47.480469 23.398438 47.519531 C 23.441406 47.363281 23.480469 47.203125 23.519531 47.039062 C 23.441406 47 23.363281 46.960938 23.28125 46.921875 Z M 23.28125 46.921875 "/>
<path style=" stroke:none;fill-rule:nonzero;fill:rgb(7.058824%,37.64706%,87.058824%);fill-opacity:1;" d="M 53.878906 46.199219 C 53.878906 46.609375 53.816406 46.6875 53.578125 47.003906 C 53.523438 47.078125 53.46875 47.152344 53.410156 47.230469 C 53.367188 47.285156 53.324219 47.34375 53.28125 47.398438 C 53.242188 47.242188 53.199219 47.082031 53.160156 46.921875 C 53.238281 46.921875 53.320312 46.921875 53.398438 46.921875 C 53.441406 46.722656 53.480469 46.523438 53.519531 46.320312 C 53.640625 46.28125 53.757812 46.242188 53.878906 46.199219 Z M 53.878906 46.199219 "/>
<path style=" stroke:none;fill-rule:nonzero;fill:rgb(81.960785%,92.941177%,99.215686%);fill-opacity:1;" d="M 26.039062 37.800781 C 26.460938 37.789062 26.832031 37.828125 27.238281 37.921875 C 27.28125 38.078125 27.320312 38.238281 27.359375 38.398438 C 27.183594 38.347656 27.011719 38.289062 26.835938 38.234375 C 26.738281 38.203125 26.640625 38.171875 26.539062 38.140625 C 26.28125 38.039062 26.28125 38.039062 26.039062 37.800781 Z M 26.039062 37.800781 "/>
<path style=" stroke:none;fill-rule:nonzero;fill:rgb(75.294119%,87.843138%,98.823529%);fill-opacity:1;" d="M 34.199219 30.71875 C 33.992188 30.828125 33.78125 30.933594 33.570312 31.035156 C 33.453125 31.09375 33.335938 31.152344 33.214844 31.210938 C 32.878906 31.320312 32.878906 31.320312 32.597656 31.21875 C 32.53125 31.171875 32.46875 31.125 32.398438 31.078125 C 32.65625 30.996094 32.910156 30.914062 33.164062 30.832031 C 33.378906 30.761719 33.378906 30.761719 33.59375 30.691406 C 33.960938 30.601562 33.960938 30.601562 34.199219 30.71875 Z M 34.199219 30.71875 "/>
<path style=" stroke:none;fill-rule:nonzero;fill:rgb(78.039217%,90.980393%,99.215686%);fill-opacity:1;" d="M 43.199219 27 C 42.070312 27.550781 42.070312 27.550781 41.519531 27.480469 C 42.039062 27.042969 42.535156 26.796875 43.199219 27 Z M 43.199219 27 "/>
<path style=" stroke:none;fill-rule:nonzero;fill:rgb(82.745099%,93.333334%,99.215686%);fill-opacity:1;" d="M 14.160156 22.558594 C 14.515625 22.558594 14.871094 22.558594 15.238281 22.558594 C 15.238281 22.679688 15.238281 22.796875 15.238281 22.921875 C 15.359375 22.960938 15.476562 23 15.601562 23.039062 C 15.359375 23.160156 15.359375 23.160156 15.074219 23.066406 C 14.964844 23.019531 14.855469 22.976562 14.746094 22.925781 C 14.582031 22.859375 14.582031 22.859375 14.414062 22.789062 C 14.332031 22.753906 14.246094 22.71875 14.160156 22.679688 C 14.160156 22.640625 14.160156 22.601562 14.160156 22.558594 Z M 14.160156 22.558594 "/>
<path style=" stroke:none;fill-rule:nonzero;fill:rgb(2.745098%,39.607844%,94.901961%);fill-opacity:1;" d="M 54.960938 43.320312 C 55.160156 43.355469 55.359375 43.394531 55.558594 43.441406 C 55.480469 43.636719 55.402344 43.835938 55.320312 44.039062 C 55.242188 43.960938 55.160156 43.882812 55.078125 43.800781 C 55 43.878906 54.921875 43.957031 54.839844 44.039062 C 54.835938 43.839844 54.835938 43.640625 54.839844 43.441406 C 54.878906 43.402344 54.917969 43.359375 54.960938 43.320312 Z M 54.960938 43.320312 "/>
<path style=" stroke:none;fill-rule:nonzero;fill:rgb(11.372549%,40.000001%,89.411765%);fill-opacity:1;" d="M 11.28125 41.640625 C 11.785156 41.71875 12.167969 41.984375 12.601562 42.238281 C 12.414062 42.328125 12.414062 42.328125 12.121094 42.359375 C 11.820312 42.222656 11.558594 42.058594 11.28125 41.878906 C 11.28125 41.800781 11.28125 41.722656 11.28125 41.640625 Z M 11.28125 41.640625 "/>
<path style=" stroke:none;fill-rule:nonzero;fill:rgb(14.509805%,44.705883%,89.019608%);fill-opacity:1;" d="M 18.71875 27.480469 C 19.207031 27.535156 19.617188 27.585938 20.039062 27.839844 C 20.039062 27.917969 20.039062 28 20.039062 28.078125 C 19.863281 28.027344 19.691406 27.96875 19.515625 27.914062 C 19.417969 27.882812 19.320312 27.855469 19.21875 27.820312 C 18.960938 27.71875 18.960938 27.71875 18.71875 27.480469 Z M 18.71875 27.480469 "/>
<path style=" stroke:none;fill-rule:nonzero;fill:rgb(83.137256%,93.725491%,99.607843%);fill-opacity:1;" d="M 38.398438 36 C 38.226562 36.082031 38.050781 36.160156 37.875 36.238281 C 37.730469 36.308594 37.730469 36.308594 37.578125 36.375 C 37.320312 36.480469 37.320312 36.480469 37.078125 36.480469 C 37.078125 36.359375 37.078125 36.242188 37.078125 36.121094 C 37.914062 35.847656 37.914062 35.847656 38.398438 36 Z M 38.398438 36 "/>
<path style=" stroke:none;fill-rule:nonzero;fill:rgb(83.137256%,93.725491%,99.607843%);fill-opacity:1;" d="M 38.398438 28.800781 C 38.398438 28.878906 38.398438 28.957031 38.398438 29.039062 C 37.9375 29.296875 37.613281 29.445312 37.078125 29.398438 C 37.472656 29.078125 37.878906 28.800781 38.398438 28.800781 Z M 38.398438 28.800781 "/>
<path style=" stroke:none;fill-rule:nonzero;fill:rgb(89.019608%,96.862745%,99.607843%);fill-opacity:1;" d="M 11.398438 21 C 11.695312 21.058594 11.695312 21.058594 12 21.121094 C 12 21.238281 12 21.359375 12 21.480469 C 12.117188 21.480469 12.238281 21.480469 12.359375 21.480469 C 12.398438 21.597656 12.4375 21.71875 12.480469 21.839844 C 11.949219 21.679688 11.71875 21.449219 11.398438 21 Z M 11.398438 21 "/>
<path style=" stroke:none;fill-rule:nonzero;fill:rgb(12.156863%,42.352942%,82.745099%);fill-opacity:1;" d="M 22.320312 57.960938 C 22.492188 57.949219 22.664062 57.941406 22.835938 57.9375 C 22.980469 57.929688 22.980469 57.929688 23.128906 57.925781 C 23.457031 57.96875 23.554688 58.066406 23.761719 58.320312 C 22.796875 58.222656 22.796875 58.222656 22.320312 57.960938 Z M 22.320312 57.960938 "/>
<path style=" stroke:none;fill-rule:nonzero;fill:rgb(10.588235%,39.607844%,87.058824%);fill-opacity:1;" d="M 9.359375 50.398438 C 9.558594 50.398438 9.757812 50.398438 9.960938 50.398438 C 10.039062 50.636719 10.117188 50.875 10.199219 51.121094 C 9.796875 50.953125 9.601562 50.761719 9.359375 50.398438 Z M 9.359375 50.398438 "/>
<path style=" stroke:none;fill-rule:nonzero;fill:rgb(83.529413%,93.725491%,99.607843%);fill-opacity:1;" d="M 37.199219 46.679688 C 37.023438 46.761719 36.851562 46.839844 36.675781 46.921875 C 36.527344 46.988281 36.527344 46.988281 36.378906 47.054688 C 36.121094 47.160156 36.121094 47.160156 35.878906 47.160156 C 35.917969 47.042969 35.960938 46.921875 36 46.800781 C 36.457031 46.597656 36.726562 46.535156 37.199219 46.679688 Z M 37.199219 46.679688 "/>
<path style=" stroke:none;fill-rule:nonzero;fill:rgb(83.137256%,94.901961%,99.607843%);fill-opacity:1;" d="M 48 38.519531 C 48.402344 38.6875 48.597656 38.878906 48.839844 39.238281 C 48.800781 39.320312 48.761719 39.398438 48.71875 39.480469 C 48.691406 39.402344 48.660156 39.328125 48.628906 39.246094 C 48.503906 38.976562 48.503906 38.976562 48.226562 38.910156 C 48.113281 38.894531 48.113281 38.894531 48 38.878906 C 48 38.761719 48 38.640625 48 38.519531 Z M 48 38.519531 "/>
<path style=" stroke:none;fill-rule:nonzero;fill:rgb(83.529413%,94.509804%,99.607843%);fill-opacity:1;" d="M 11.761719 28.320312 C 11.839844 28.359375 11.917969 28.398438 12 28.441406 C 11.90625 28.582031 11.8125 28.71875 11.714844 28.859375 C 11.660156 28.9375 11.609375 29.015625 11.554688 29.097656 C 11.503906 29.15625 11.453125 29.21875 11.398438 29.28125 C 11.320312 29.28125 11.242188 29.28125 11.160156 29.28125 C 11.300781 28.875 11.433594 28.601562 11.761719 28.320312 Z M 11.761719 28.320312 "/>
<path style=" stroke:none;fill-rule:nonzero;fill:rgb(10.588235%,41.568628%,90.196079%);fill-opacity:1;" d="M 16.921875 23.761719 C 17.238281 23.878906 17.554688 23.996094 17.878906 24.121094 C 17.878906 24.199219 17.878906 24.277344 17.878906 24.359375 C 17.683594 24.398438 17.484375 24.4375 17.28125 24.480469 C 17.28125 24.359375 17.28125 24.242188 17.28125 24.121094 C 17.160156 24.082031 17.042969 24.039062 16.921875 24 C 16.921875 23.921875 16.921875 23.839844 16.921875 23.761719 Z M 16.921875 23.761719 "/>
<path style=" stroke:none;fill-rule:nonzero;fill:rgb(10.588235%,41.568628%,91.37255%);fill-opacity:1;" d="M 12.601562 27.359375 C 12.878906 27.398438 13.15625 27.4375 13.441406 27.480469 C 13.320312 27.71875 13.320312 27.71875 12.953125 27.855469 C 12.835938 27.890625 12.71875 27.925781 12.601562 27.960938 C 12.601562 27.761719 12.601562 27.5625 12.601562 27.359375 Z M 12.601562 27.359375 "/>
<path style=" stroke:none;fill-rule:nonzero;fill:rgb(3.137255%,37.254903%,92.941177%);fill-opacity:1;" d="M 57.121094 20.160156 C 57.277344 20.359375 57.4375 20.554688 57.601562 20.761719 C 57.34375 21.015625 57.222656 21.050781 56.878906 21.121094 C 56.878906 21.039062 56.878906 20.960938 56.878906 20.878906 C 56.960938 20.878906 57.039062 20.878906 57.121094 20.878906 C 57.121094 20.640625 57.121094 20.40625 57.121094 20.160156 Z M 57.121094 20.160156 "/>
<path style=" stroke:none;fill-rule:nonzero;fill:rgb(9.411765%,39.215687%,88.627452%);fill-opacity:1;" d="M 5.761719 13.921875 C 5.839844 14.039062 5.917969 14.15625 6 14.28125 C 5.800781 14.476562 5.605469 14.675781 5.398438 14.878906 C 5.398438 14.449219 5.53125 14.273438 5.761719 13.921875 Z M 5.761719 13.921875 "/>
<path style=" stroke:none;fill-rule:nonzero;fill:rgb(1.960784%,39.607844%,93.725491%);fill-opacity:1;" d="M 34.800781 58.078125 C 35.117188 58.121094 35.433594 58.160156 35.761719 58.199219 C 35.71875 58.277344 35.679688 58.359375 35.640625 58.441406 C 35.363281 58.441406 35.085938 58.441406 34.800781 58.441406 C 34.800781 58.320312 34.800781 58.203125 34.800781 58.078125 Z M 34.800781 58.078125 "/>
<path style=" stroke:none;fill-rule:nonzero;fill:rgb(1.960784%,39.215687%,93.333334%);fill-opacity:1;" d="M 21.121094 57 C 21.039062 57.160156 20.960938 57.316406 20.878906 57.480469 C 20.640625 57.402344 20.40625 57.320312 20.160156 57.238281 C 20.546875 56.980469 20.675781 56.976562 21.121094 57 Z M 21.121094 57 "/>
<path style=" stroke:none;fill-rule:nonzero;fill:rgb(83.529413%,94.117647%,99.607843%);fill-opacity:1;" d="M 35.519531 36.71875 C 35.835938 36.71875 36.152344 36.71875 36.480469 36.71875 C 36.121094 36.957031 35.808594 37.074219 35.398438 37.199219 C 35.441406 37.042969 35.480469 36.882812 35.519531 36.71875 Z M 35.519531 36.71875 "/>
<path style=" stroke:none;fill-rule:nonzero;fill:rgb(11.372549%,42.745098%,88.235295%);fill-opacity:1;" d="M 36.71875 29.398438 C 36.367188 29.699219 36.097656 29.816406 35.640625 29.878906 C 35.640625 29.800781 35.640625 29.722656 35.640625 29.640625 C 36.015625 29.417969 36.285156 29.375 36.71875 29.398438 Z M 36.71875 29.398438 "/>
<path style=" stroke:none;fill-rule:nonzero;fill:rgb(85.09804%,94.509804%,99.607843%);fill-opacity:1;" d="M 48.121094 21.601562 C 47.761719 21.757812 47.40625 21.917969 47.039062 22.078125 C 47.039062 21.960938 47.039062 21.84375 47.039062 21.71875 C 47.496094 21.503906 47.605469 21.472656 48.121094 21.601562 Z M 48.121094 21.601562 "/>
<path style=" stroke:none;fill-rule:nonzero;fill:rgb(10.588235%,40.000001%,85.490197%);fill-opacity:1;" d="M 13.921875 5.761719 C 14 5.800781 14.078125 5.839844 14.160156 5.878906 C 14.082031 5.914062 14.007812 5.945312 13.925781 5.976562 C 13.640625 6.105469 13.640625 6.105469 13.558594 6.480469 C 13.402344 6.441406 13.242188 6.402344 13.078125 6.359375 C 13.355469 6.160156 13.632812 5.964844 13.921875 5.761719 Z M 13.921875 5.761719 "/>
</g>
</svg>
